<svg height="800px" width="800px" version="1.1" id="Layer_1" xmlns="http://www.w3.org/2000/svg" xmlns:xlink="http://www.w3.org/1999/xlink" 
	 viewBox="0 0 512.001 512.001" xml:space="preserve">
<path style="fill:#DEDEE0;" d="M462.382,1.774c-8.696-3.603-18.708-1.614-25.363,5.042l-49.371,49.369L338.281,6.818
	c-9.087-9.089-23.823-9.089-32.912,0l-48.513,48.511L256,56.186L206.632,6.818c-2.839-2.841-6.231-4.793-9.83-5.859
	c-4.318-1.278-8.934-1.278-13.251,0c-3.598,1.066-6.99,3.018-9.83,5.859l-49.368,49.368L74.982,6.817
	c-0.832-0.832-1.716-1.592-2.644-2.276c-1.392-1.027-2.881-1.885-4.436-2.569c-5.703-2.509-12.303-2.675-18.281-0.199
	c-8.696,3.601-14.367,12.089-14.367,21.501v465.453c0,12.854,10.42,23.273,23.273,23.273h198.331h196.618
	c12.853,0,23.273-10.418,23.273-23.273V23.273C476.749,13.862,471.078,5.375,462.382,1.774z"/>
<path style="fill:#C3C3C7;" d="M181,285.334c10.583-0.003,12.01-5.449,12.01-10.775v-37.404c-0.002-5.326-1.429-10.775-12.01-10.775
	c-10.335,0-11.759,5.179-11.759,10.775v37.399C169.241,280.152,170.665,285.331,181,285.334z"/>
<g>
	<path style="fill:#57565C;" d="M180.998,308.826c23.339,0,36.724-12.493,36.724-34.271v-37.399
		c0-11.593-3.728-20.508-11.084-26.498c-6.321-5.148-14.949-7.758-25.64-7.758h-0.003c-10.685,0-19.307,2.61-25.629,7.758
		c-7.353,5.99-11.082,14.905-11.082,26.498v37.404C144.286,296.336,157.668,308.826,180.998,308.826z M169.241,237.155
		c0-5.596,1.424-10.775,11.759-10.775c10.581,0,12.009,5.449,12.01,10.775v37.404c0,5.328-1.427,10.772-12.01,10.775
		c-10.335-0.003-11.759-5.182-11.759-10.78V237.155z"/>
	<path style="fill:#57565C;" d="M256.856,325.714l57.977-113.347c0.932-1.865,1.385-3.817,1.385-5.969
		c0-7.691-6.766-12.859-13.087-12.859c-4.706,0-8.625,2.408-10.515,6.451l-35.759,70.111v55.612H256.856z"/>
	<path style="fill:#57565C;" d="M256.856,270.102l-57.975,113.673c-0.919,1.857-1.385,3.78-1.385,5.71
		c0,6.693,5.77,12.353,12.6,12.361h0.017c4.948-0.008,9.228-2.673,11.419-7.07l35.325-69.061V270.102z"/>
</g>
<path style="fill:#DEDEE0;" d="M331.001,372.447c10.575,0,11.999-5.444,11.999-10.766v-37.405c0-5.331-1.426-10.778-11.998-10.778
	c-10.333,0-11.757,5.179-11.757,10.775v37.412C319.245,367.274,320.67,372.447,331.001,372.447z"/>
<path style="fill:#57565C;" d="M294.278,324.271v37.409c0,21.772,13.385,34.26,36.724,34.26c23.332,0,36.713-12.488,36.713-34.26
	v-37.408c0.002-14.31-6.017-22.25-11.065-26.393c-6.366-5.221-14.994-7.868-25.65-7.868
	C308.008,290.011,294.278,302.818,294.278,324.271z M319.245,324.271c0-5.596,1.424-10.775,11.757-10.775
	c10.572,0,11.998,5.449,11.998,10.778v37.405c0,5.323-1.426,10.766-11.999,10.766c-10.331,0-11.756-5.173-11.756-10.764
	L319.245,324.271L319.245,324.271z"/>
<g>
	<path style="fill:#C3C3C7;" d="M256.856,512.001V325.714l-35.325,69.061c-2.191,4.397-6.471,7.062-11.419,7.07h-0.017
		c-6.83-0.008-12.6-5.668-12.6-12.361c0-1.93,0.467-3.851,1.386-5.71l57.975-113.673V55.329L256,56.186L206.632,6.818
		c-9.089-9.089-23.823-9.089-32.912,0l-49.368,49.368L74.982,6.817c-6.656-6.656-16.666-8.645-25.363-5.042
		c-8.696,3.601-14.367,12.089-14.367,21.501v465.453c0,12.854,10.42,23.273,23.273,23.273H256.856z M144.285,237.155
		c0-11.593,3.728-20.508,11.082-26.498c6.321-5.148,14.944-7.758,25.629-7.758H181c10.693,0,19.319,2.61,25.64,7.758
		c7.354,5.989,11.084,14.904,11.084,26.498v37.399c0,21.779-13.385,34.271-36.724,34.271c-23.33,0-36.712-12.49-36.713-34.267
		v-37.404H144.285z"/>
	<polygon style="fill:#C3C3C7;" points="221.533,394.773 256.856,325.714 256.856,325.714 	"/>
</g>
<polygon style="fill:#DEDEE0;" points="256.856,325.714 256.856,325.714 314.833,212.367 "/>
</svg>